<svg xmlns="http://www.w3.org/2000/svg" viewBox="71 450 937 178" fill="none" role="img" aria-label="LAVA">
  <rect x="101" y="458" width="88" height="32" rx="16.0" fill="#F4EDE0"/>
  <rect x="352" y="458" width="148" height="32" rx="16.0" fill="#F4EDE0"/>
  <rect x="525" y="458" width="96" height="32" rx="16.0" fill="#F4EDE0"/>
  <rect x="691" y="458" width="88" height="32" rx="16.0" fill="#F4EDE0"/>
  <rect x="805" y="458" width="148" height="32" rx="16.0" fill="#F4EDE0"/>
  <rect x="93" y="508" width="88" height="25" rx="12.5" fill="#F4EDE0"/>
  <rect x="323" y="508" width="80" height="25" rx="12.5" fill="#F4EDE0"/>
  <rect x="424" y="508" width="92" height="25" rx="12.5" fill="#F4EDE0"/>
  <rect x="540" y="508" width="94" height="25" rx="12.5" fill="#F4EDE0"/>
  <rect x="662" y="508" width="90" height="25" rx="12.5" fill="#F4EDE0"/>
  <rect x="776" y="508" width="81" height="25" rx="12.5" fill="#F4EDE0"/>
  <rect x="878" y="508" width="91" height="25" rx="12.5" fill="#F4EDE0"/>
  <rect x="86" y="558" width="446" height="19" rx="9.5" fill="#F4EDE0"/>
  <rect x="555" y="558" width="171" height="19" rx="9.5" fill="#F4EDE0"/>
  <rect x="747" y="558" width="238" height="19" rx="9.5" fill="#F4EDE0"/>
  <rect x="79" y="608" width="272" height="12" rx="6.0" fill="#F4EDE0"/>
  <rect x="451" y="608" width="96" height="12" rx="6.0" fill="#F4EDE0"/>
  <rect x="570" y="608" width="129" height="12" rx="6.0" fill="#F4EDE0"/>
  <rect x="719" y="608" width="85" height="12" rx="6.0" fill="#F4EDE0"/>
  <rect x="904" y="608" width="96" height="12" rx="6.0" fill="#F4EDE0"/>
</svg>
